# xmcd CD database file
#
# Track frame offsets:
#	150
#	25315
#	52162
#	90105
#	126388
#	146500
#	173100
#	207686
#
# Disc length: 3138 seconds
#
# Revision: 0
# Processed by: cddbd v1.4PL0 Copyright (c) Steve Scherf et al.
# Submitted via: CDex 1.50
#
DISCID=720c4008
DTITLE=Various Artist - Jazz For A Summer Night Disc 1
DYEAR=2003
DGENRE=Jazz
TTITLE0=Long Day Blues - Jack McDuff
TTITLE1=Catch The Feeling - The Bronx Horns
TTITLE2=Medina - Joe Chambers
TTITLE3=Spank - Cindy Blackman
TTITLE4=Jungle Plum - Kenny Barron
TTITLE5=Recorda Me Remember Me - Bobby Hutcherson
TTITLE6=Senor Trane - Carlos Garnett
TTITLE7=Willow - Pat Martino
EXTD=YEAR: 2003
EXTT0=
EXTT1=
EXTT2=
EXTT3=
EXTT4=
EXTT5=
EXTT6=
EXTT7=
PLAYORDER=
